<?xml version="1.0" standalone="no"?>
<!DOCTYPE svg PUBLIC "-//W3C//DTD SVG 20010904//EN"
 "http://www.w3.org/TR/2001/REC-SVG-20010904/DTD/svg10.dtd">
<svg version="1.0" xmlns="http://www.w3.org/2000/svg"
 width="500.000000pt" height="166.000000pt" viewBox="0 0 500.000000 166.000000"
 preserveAspectRatio="xMidYMid meet">
<metadata>
Created by potrace 1.15, written by Peter Selinger 2001-2017
</metadata>
<g transform="translate(0.000000,166.000000) scale(0.100000,-0.100000)"
fill="#000000" stroke="none">
<path d="M81 1642 c-19 -9 -44 -30 -55 -45 -21 -28 -21 -36 -21 -770 0 -726 0
-743 20 -769 44 -60 16 -58 802 -58 793 0 759 -3 807 63 21 28 21 36 21 767 0
731 0 739 -21 767 -48 66 -14 63 -804 63 -661 0 -718 -1 -749 -18z m554 -544
c196 -498 194 -493 201 -473 5 11 63 159 129 330 l121 310 92 3 92 3 0 -451 0
-450 -77 0 -76 0 6 303 6 302 -122 -302 -122 -303 -56 0 -57 0 -111 276 c-62
152 -116 286 -121 297 -5 13 -9 -97 -9 -275 l-1 -298 -75 0 -75 0 0 450 0 450
94 0 93 0 68 -172z"/>
<path d="M1751 1642 c-19 -9 -44 -30 -55 -45 -21 -28 -21 -36 -21 -767 0 -731
0 -739 21 -767 48 -65 13 -62 812 -63 800 0 753 -4 800 64 l22 32 0 725 c0
807 3 768 -69 816 l-34 23 -721 0 c-667 0 -724 -1 -755 -18z m916 -396 c98
-46 184 -165 213 -297 17 -75 8 -238 -16 -309 -26 -78 -92 -169 -148 -207 -80
-54 -127 -63 -338 -63 l-188 0 0 450 0 450 213 0 c203 0 214 -1 264 -24z"/>
<path d="M2340 826 l0 -326 90 0 c104 0 140 12 198 64 65 59 85 120 86 256 0
102 -3 121 -26 170 -50 109 -117 151 -255 158 l-93 5 0 -327z"/>
<path d="M3431 1642 c-19 -9 -44 -30 -55 -45 -21 -28 -21 -36 -21 -777 0 -734
0 -748 20 -770 45 -51 35 -50 787 -50 432 0 717 4 739 10 19 5 48 24 65 41
l29 30 -2 746 c-1 716 -2 747 -20 772 -11 14 -35 34 -54 43 -31 17 -88 18
-744 18 -656 0 -713 -1 -744 -18z m914 -395 c84 -38 123 -94 132 -192 7 -77
-13 -142 -56 -178 l-28 -23 34 -23 c22 -14 44 -42 60 -78 23 -49 25 -65 21
-144 -4 -78 -8 -94 -34 -131 -20 -30 -48 -52 -89 -73 l-60 -30 -227 -3 -228
-4 0 452 0 452 218 -4 c181 -3 224 -6 257 -21z"/>
<path d="M4020 1025 l0 -125 93 0 c115 0 171 23 201 83 16 34 17 42 5 74 -26
67 -85 92 -221 93 l-78 0 0 -125z"/>
<path d="M4020 640 l0 -140 115 0 c124 0 151 7 194 54 36 38 40 110 9 156 -38
57 -76 70 -205 70 l-113 0 0 -140z"/>
</g>
</svg>
